<svg width="29" height="28" viewBox="0 0 29 28" fill="none" xmlns="http://www.w3.org/2000/svg">
<path d="M14.7126 25.6121C17.1583 23.6197 19.4886 21.4899 21.6923 19.2328C26.1453 14.6673 26.6269 12.8911 26.7769 12.2156C27.0445 11.0205 27.0716 9.78404 26.8569 8.57828C26.6422 7.37252 26.1898 6.2215 25.5261 5.19218C24.9883 4.42917 23.2371 1.90874 20.4415 2.00255C18.3901 2.07135 15.0941 5.41733 14.7189 5.83011L14.5 6.06777L14.2874 5.83636C13.9121 5.42359 10.6162 2.08385 8.56479 2.0088C5.76292 1.90874 4.01175 4.42917 3.47389 5.19218C2.81021 6.2215 2.35784 7.37252 2.1431 8.57828C1.92836 9.78404 1.95554 11.0205 2.22305 12.2156C2.37315 12.8911 2.84847 14.6673 7.3077 19.2328C9.51747 21.4904 11.8541 23.6203 14.3061 25.6121L14.5313 25.7684L14.7126 25.6121Z" fill="#E74949" stroke="#505050" stroke-width="3" stroke-miterlimit="10"/>
</svg>
