<svg width="29" height="29" viewBox="0 0 29 29" fill="none" xmlns="http://www.w3.org/2000/svg">
<path d="M20.1935 21.9036C20.1766 22.3324 20.2259 22.7612 20.3398 23.175C20.7762 24.4934 21.6809 25.6062 22.8825 26.3026C19.1192 28.0444 15.1525 26.3026 14.1799 23.5182C14.1134 23.3212 14.0624 23.1193 14.0273 22.9143C7.32711 22.641 2 18.0385 2 12.4699C2 6.69142 7.72124 2 14.7139 2C21.7065 2 27.4277 6.69142 27.4277 12.4699C27.4277 16.6146 24.4718 20.2126 20.1935 21.9036Z" stroke="#505050" stroke-width="3" stroke-miterlimit="10"/>
<path d="M7.98187 8.33789H21.4459" stroke="#505050" stroke-width="2" stroke-miterlimit="10"/>
<path d="M7.98187 12.0757H21.4459" stroke="#505050" stroke-width="2" stroke-miterlimit="10"/>
<path d="M7.98187 15.8135H21.4459" stroke="#505050" stroke-width="2" stroke-miterlimit="10"/>
</svg>
